<?xml version="1.0" standalone="no"?>
<!DOCTYPE svg PUBLIC "-//W3C//DTD SVG 20010904//EN"
 "http://www.w3.org/TR/2001/REC-SVG-20010904/DTD/svg10.dtd">
<svg version="1.0" xmlns="http://www.w3.org/2000/svg"
 width="40.000000pt" height="40.000000pt" viewBox="0 0 40.000000 40.000000"
 preserveAspectRatio="xMidYMid meet">

<g transform="translate(0.000000,40.000000) scale(0.100000,-0.100000)"
fill="#000000" stroke="none">
<path d="M61 260 l-32 -40 32 -40 33 -41 140 3 141 3 0 75 0 75 -141 3 -140 3
-33 -41z m149 -5 c12 -14 15 -14 31 1 24 21 38 10 21 -16 -10 -16 -10 -24 0
-40 17 -26 3 -37 -21 -16 -16 15 -19 15 -31 1 -20 -24 -43 -19 -34 8 4 12 11
25 16 28 5 3 2 12 -7 19 -8 7 -15 16 -15 21 0 15 27 10 40 -6z"/>
</g>
</svg>
