<?xml version="1.0" encoding="UTF-8"?>
<!DOCTYPE svg PUBLIC "-//W3C//DTD SVG 1.1//EN" "http://www.w3.org/Graphics/SVG/1.1/DTD/svg11.dtd">
<!-- Creator: CorelDRAW 2019 (64-Bit Evaluation Version) -->
<svg xmlns="http://www.w3.org/2000/svg" xml:space="preserve" width="338px" height="338px" version="1.1" style="shape-rendering:geometricPrecision; text-rendering:geometricPrecision; image-rendering:optimizeQuality; fill-rule:evenodd; clip-rule:evenodd"
viewBox="0 0 317.92 317.95"
 xmlns:xlink="http://www.w3.org/1999/xlink"
 xmlns:xodm="http://www.corel.com/coreldraw/odm/2003">
 <defs>
  <style type="text/css">
   <![CDATA[
    .fil0 {fill:#9D0E0E}
    .fil1 {fill:#D5100F}
   ]]>
  </style>
 </defs>
<symbol id="Symbol48" viewBox="10.04 -1004.66 317.92 317.95">
 <path class="fil0" d="M74.05 -688.51c5.72,-2.7 6.85,-4.77 11.55,-9.46 8.17,-8.17 80.87,-81.51 83.5,-83.27 2.53,1.69 42.03,42.27 46.94,47.17 13.15,13.15 27.41,29.01 41.12,41.12 9.46,8.35 22.02,8.46 31.07,-0.68l32.44 -32.44c7.78,-7.71 9.34,-17.03 4.54,-26.7 -2.28,-4.58 -13.6,-15.03 -17.79,-19.22l-64.65 -64.65c-2.36,-2.35 -7.69,-7.14 -9.25,-9.48 2.28,-1.53 73.38,-73.16 79.15,-78.93 5.06,-5.06 11.62,-10.04 14.12,-17.41 3.19,-9.43 -0.61,-17.78 -5.89,-23.03 -9.52,-9.52 -33.11,-37.17 -45.34,-39.17l-6.37 0c-4.34,0.72 -8.69,2.94 -12.71,6.97l-79.28 79.27c-2.08,2.08 -6.01,6.48 -8.1,7.88 -16.98,-11.37 -82.62,-91.24 -100.62,-94.12l-6.2 0c-11.61,1.87 -35.37,29.56 -44.53,38.72 -9.86,9.84 -10.46,22.7 -0.69,32.44l55.52 55.51c2.52,2.52 30.29,29.86 31.64,31.87 -0.57,2.11 -2.76,3.44 -4.23,4.91l-78.13 78.13c-6.63,6.64 -13.45,12.31 -11.39,24.41 0.95,5.56 3.31,8.89 6.59,12.14 6.23,6.18 12.08,12.08 18.28,18.28l15.98 16c5.68,5.57 16.03,7.18 22.73,3.74z"/>
 <path class="fil1" d="M190.97 -770.19c1.16,2.52 61.08,61.38 67.25,67.5 4.38,4.34 10.36,11.34 19.81,7.08 2.79,-1.26 29.24,-27.53 34.67,-32.95 15.71,-15.67 5.05,-22.73 -7.5,-35.27 -24.43,-24.45 -49.2,-48.46 -73.7,-72.91 -5.09,-6.52 -8.43,-6.64 -2.67,-15.45 2.09,-1.67 4.23,-4.1 6.24,-6.08l82.91 -82.96c3.23,-5 3.5,-12.18 -0.53,-17.12 -0.77,-0.94 -0.85,-0.57 -1.94,-1.52 -1.26,-3.58 -34.92,-35.66 -39.42,-37.06 -10.05,-1.89 -12.72,2.95 -17.53,7.71 -28.31,28.02 -56.64,56.12 -84.68,84.39 -6.11,6.18 -12.79,-2.75 -15.96,-5.96 -16.22,-16.27 -69.51,-75.2 -85,-84.51 -6.65,-3.99 -15.64,-0.92 -18.5,3.32 -1.38,0.81 -31.46,31.03 -33.18,33.54 -3.68,1.98 -4.72,9.43 -2.42,14.94 3.9,9.37 68.72,70.09 80.88,82.25 2.55,2.52 11.51,10.27 12.28,14.12 0.28,5.78 -3.59,7.87 -5.96,10.59 -27.58,27.68 -55.55,55.06 -82.91,82.93 -3.05,3.1 -6.73,7.23 -5.08,14.26 1.38,5.82 36.69,42.17 43.36,44.35 9.48,3.11 14.98,-4.58 19.25,-8.85 26.11,-26.12 52.22,-52.25 78.31,-78.4 2.23,-2.25 6.29,-7.86 12.05,-6.39 3.87,0.99 15.78,15.8 19.97,18.45z"/>
</symbol>
 <g id="Layer_x0020_1">
  <metadata id="CorelCorpID_0Corel-Layer"/>
  <use width="317.92" height="317.95" xlink:href="#Symbol48"/>
 </g>
</svg>
