<?xml version="1.0" encoding="UTF-8"?>
<!DOCTYPE svg PUBLIC "-//W3C//DTD SVG 1.1//EN" "http://www.w3.org/Graphics/SVG/1.1/DTD/svg11.dtd">
<!-- Creator: CorelDRAW 2019 (64 Bit Versão de avaliação) -->
<svg xmlns="http://www.w3.org/2000/svg" xml:space="preserve" width="3.8059mm" height="4.7573mm" version="1.1" style="shape-rendering:geometricPrecision; text-rendering:geometricPrecision; image-rendering:optimizeQuality; fill-rule:evenodd; clip-rule:evenodd"
viewBox="0 0 5.17 6.47"
 xmlns:xlink="http://www.w3.org/1999/xlink">
 <defs>
  <style type="text/css">
   <![CDATA[
    .fil0 {fill:#3D90CA}
   ]]>
  </style>
 </defs>
 <g id="Layer_x0020_1">
  <metadata id="CorelCorpID_0Corel-Layer"/>
  <path class="fil0" d="M3.23 0l-2.59 0c-0.36,0 -0.64,0.29 -0.64,0.65l-0 5.17c0,0.36 0.29,0.65 0.64,0.65l3.88 -0c0.36,0 0.65,-0.29 0.65,-0.65l0 -3.88 -1.94 -1.94zm0.65 5.17l-2.59 0 0 -0.65 2.59 0 0 0.65zm0 -1.29l-2.59 0 0 -0.65 2.59 0 0 0.65zm-0.97 -1.62l0 -1.78 1.78 1.78 -1.78 0z"/>
 </g>
</svg>
