<?xml version="1.0" encoding="UTF-8"?>
<!DOCTYPE svg PUBLIC "-//W3C//DTD SVG 1.1//EN" "http://www.w3.org/Graphics/SVG/1.1/DTD/svg11.dtd">
<!-- Creator: CorelDRAW 2019 (64-Bit Evaluation Version) -->
<svg xmlns="http://www.w3.org/2000/svg" xml:space="preserve" width="72px" height="72px" version="1.1" style="shape-rendering:geometricPrecision; text-rendering:geometricPrecision; image-rendering:optimizeQuality; fill-rule:evenodd; clip-rule:evenodd"
viewBox="0 0 1.68 1.68"
 xmlns:xlink="http://www.w3.org/1999/xlink"
 xmlns:xodm="http://www.corel.com/coreldraw/odm/2003">
 <defs>
  <style type="text/css">
   <![CDATA[
    .fil3 {fill:#4B4B4D}
    .fil2 {fill:#3D90CA}
    .fil0 {fill:#CDD7DB}
    .fil1 {fill:#EAECED}
    .fil4 {fill:#F4A557}
   ]]>
  </style>
 </defs>
 <g id="Layer_x0020_1">
  <metadata id="CorelCorpID_0Corel-Layer"/>
  <g id="_2366973609840">
   <path class="fil0" d="M1.24 0.43l0 0.01c0.02,0.01 0.06,0.06 0.08,0.08 0.01,0.01 0.02,0.02 0.04,0.03 0.01,0.02 0.02,0.03 0.04,0.04l0.08 -0.08c-0.02,0 0,0 -0.01,0 0,0 0,0 -0.01,-0.01l-0.06 -0.06c-0.02,-0.02 -0.07,-0.07 -0.08,-0.08l0 0c-0.01,0.01 -0.03,0.03 -0.04,0.04 -0.01,0.01 -0.02,0.03 -0.04,0.03z"/>
   <path class="fil1" d="M1.09 0.29l0.15 0.14c0.02,0 0.03,-0.02 0.04,-0.03 0.01,-0.01 0.03,-0.03 0.04,-0.04 -0.01,-0.01 -0.05,-0.05 -0.08,-0.08l-0.07 -0.07 -0.08 0.08z"/>
   <g>
    <path class="fil2" d="M0.36 1.32c0.01,0.01 0.14,0.14 0.16,0.15l0.88 -0.88c-0.02,-0.01 -0.03,-0.02 -0.04,-0.04 -0.02,-0.01 -0.03,-0.02 -0.04,-0.03 -0.02,-0.02 -0.06,-0.07 -0.08,-0.08l0 -0.01 -0.15 -0.14c-0.02,0.01 -0.42,0.42 -0.44,0.43 -0.04,0.04 -0.07,0.08 -0.11,0.11 -0.02,0.02 -0.04,0.04 -0.06,0.06 -0.01,0.01 -0.01,0.02 -0.02,0.03 -0.01,0.01 -0.02,0.01 -0.03,0.02 -0.05,0.06 -0.17,0.17 -0.22,0.22 0,0.02 0.03,0.03 0.04,0.04 0.01,0.02 0.02,0.03 0.04,0.04 0.02,0.02 0.05,0.05 0.07,0.08l0 0z"/>
    <path class="fil3" d="M1.17 0.21l0.07 0.07c0.03,0.03 0.07,0.07 0.08,0.08l0 0c0.01,0.01 0.06,0.06 0.08,0.08l0.06 0.06c0.01,0.01 0.01,0.01 0.01,0.01 0.01,0 -0.01,0 0.01,0 0,-0.01 0.07,-0.08 0.09,-0.09 0.11,-0.11 0.15,-0.12 0.07,-0.2 -0.01,-0.01 -0.08,-0.08 -0.09,-0.09 -0.01,-0.02 -0.07,-0.07 -0.09,-0.09 -0.01,-0.01 -0.03,-0.04 -0.05,-0.04 -0.03,0 -0.05,0.01 -0.06,0.03 -0.03,0.03 -0.06,0.06 -0.09,0.09 -0.02,0.01 -0.03,0.03 -0.05,0.04l-0.04 0.05z"/>
    <path class="fil4" d="M0.13 1.55l0 0c0.02,0.01 0.06,0.06 0.07,0.07 0.02,-0.01 0.06,-0.03 0.08,-0.04 0.03,-0.01 0.05,-0.02 0.08,-0.03 0.02,-0.02 0.15,-0.07 0.16,-0.08 -0.02,-0.01 -0.15,-0.14 -0.16,-0.15l0 0c-0.02,-0.03 -0.05,-0.06 -0.07,-0.08 -0.02,-0.01 -0.03,-0.02 -0.04,-0.04 -0.01,-0.01 -0.04,-0.02 -0.04,-0.04 -0.01,0.01 -0.06,0.14 -0.07,0.16 -0.02,0.03 -0.03,0.05 -0.04,0.08 -0.01,0.03 -0.03,0.06 -0.04,0.08 0.02,0.02 0.06,0.06 0.07,0.07z"/>
    <path class="fil3" d="M0.13 1.55l0 0c-0.01,-0.01 -0.05,-0.05 -0.07,-0.07 -0.01,0.02 -0.03,0.07 -0.04,0.09 -0.01,0.03 -0.03,0.05 -0.02,0.08l0.02 0.01c0,0.01 0,0 0,0.01l0.02 0.01 0.03 0 0.13 -0.06c-0.01,-0.01 -0.05,-0.06 -0.07,-0.07z"/>
   </g>
  </g>
 </g>
</svg>
