<?xml version="1.0" encoding="UTF-8"?>
<!DOCTYPE svg PUBLIC "-//W3C//DTD SVG 1.1//EN" "http://www.w3.org/Graphics/SVG/1.1/DTD/svg11.dtd">
<!-- Creator: CorelDRAW 2019 (64 Bit Versão de avaliação) -->
<svg xmlns="http://www.w3.org/2000/svg" xml:space="preserve" width="3.9355mm" height="5.2472mm" version="1.1" style="shape-rendering:geometricPrecision; text-rendering:geometricPrecision; image-rendering:optimizeQuality; fill-rule:evenodd; clip-rule:evenodd"
viewBox="0 0 6.65 8.87"
 xmlns:xlink="http://www.w3.org/1999/xlink">
 <defs>
  <style type="text/css">
   <![CDATA[
    .fil0 {fill:#207345}
   ]]>
  </style>
 </defs>
 <g id="Layer_x0020_1">
  <metadata id="CorelCorpID_0Corel-Layer"/>
  <path class="fil0" d="M4.3 2.77l2.36 0 0 5.68c0,0.23 -0.19,0.42 -0.42,0.42l-5.82 0c-0.23,0 -0.42,-0.19 -0.42,-0.42l0 -8.04c0,-0.23 0.19,-0.42 0.42,-0.42l3.47 0 0 2.36c0,0.23 0.19,0.42 0.42,0.42zm-2.27 1.6c-0.13,0.22 -0.43,1.05 -0.44,1.06l-0.37 -1.01 -0.56 0.03c0.04,0.22 0.59,1.2 0.58,1.33 -0.01,0.05 -0.27,0.55 -0.32,0.65 -0.08,0.15 -0.28,0.51 -0.32,0.66l0.55 0.03c0.15,-0.28 0.32,-0.82 0.42,-0.99 0.01,0.02 0.01,0.01 0.03,0.05 0.08,0.18 0.37,0.95 0.42,0.98l0.61 0.05c-0.06,-0.19 -0.24,-0.52 -0.35,-0.71 -0.04,-0.08 -0.34,-0.67 -0.35,-0.71 -0.02,-0.12 0.6,-1.2 0.68,-1.45l-0.57 0.03zm1.93 3.01l0.01 0.62 0.75 -0 -0.01 -0.59 -0.75 -0.03zm0.77 -3.24l-0 -0.64 -0.77 0 -0 0.65 0.77 -0.01zm0.28 0.01l1.22 -0 0.01 -0.64 -1.23 0c-0.01,0.14 -0.03,0.53 0.01,0.64zm-0.27 0.96l-0.01 -0.63c-0.26,-0.01 -0.52,-0.01 -0.77,-0.02l-0.01 0.66 0.8 -0.02zm0.25 0.01l1.24 -0 -0 -0.64 -1.23 0 -0.01 0.64zm-0.27 0.96l0 -0.63c-0.26,-0 -0.51,-0 -0.77,-0.01l-0.01 0.66c0.26,-0.01 0.51,-0.01 0.77,-0.01zm0.29 -0l1.21 -0 0 -0.63 -1.21 -0 -0 0.63zm-1.05 0.98l0.74 -0.03 -0 -0.59 -0.75 -0.02 0 0.65zm1.04 -0.02l1.22 0.01 -0 -0.62 -1.21 -0 -0.01 0.62zm-0.01 0.98l1.23 0 0.01 -0.64 -1.25 -0 0 0.64zm1.54 -6.21l-1.7 -1.7c-0.08,-0.08 -0.18,-0.12 -0.29,-0.12l-0.1 0 0 2.22 2.22 0 0 -0.11c0,-0.11 -0.04,-0.21 -0.12,-0.29z"/>
 </g>
</svg>
