<?xml version="1.0" encoding="UTF-8"?>
<!DOCTYPE svg PUBLIC "-//W3C//DTD SVG 1.1//EN" "http://www.w3.org/Graphics/SVG/1.1/DTD/svg11.dtd">
<!-- Creator: CorelDRAW 2019 (64-Bit Evaluation Version) -->
<svg xmlns="http://www.w3.org/2000/svg" xml:space="preserve" width="24.1061mm" height="24.1536mm" version="1.1" style="shape-rendering:geometricPrecision; text-rendering:geometricPrecision; image-rendering:optimizeQuality; fill-rule:evenodd; clip-rule:evenodd"
viewBox="0 0 402.31 403.11"
 xmlns:xlink="http://www.w3.org/1999/xlink"
 xmlns:xodm="http://www.corel.com/coreldraw/odm/2003">
 <defs>
  <style type="text/css">
   <![CDATA[
    .fil1 {fill:#3D90CA}
    .fil2 {fill:#F37C00}
    .fil0 {fill:#FDBF07}
   ]]>
  </style>
 </defs>
 <g id="Layer_x0020_1">
  <metadata id="CorelCorpID_0Corel-Layer"/>
  <g id="_2669206667152">
   <path class="fil0" d="M50.93 289.97c30.75,10.18 79.65,7.15 109.39,-8.96 7.34,-3.98 20.1,-12.6 23.63,-17.54 -8.82,14.4 -25.97,29.47 -42.46,38.41 -15.64,8.47 -37.82,15 -56.1,15.45 -3.89,0.1 -6.27,-0.38 -8.06,1.26 3.58,5.82 16.8,16.18 23.01,20.98 6.1,4.71 19.48,15.31 26.15,17.91 20.99,2.64 55.78,-6.85 72.1,-13.39 33.38,-13.38 41.04,-27.12 51.36,-33.78 -7.07,13.49 -25.59,31.01 -36.19,40.21 -20.06,17.41 -46.74,27.9 -47.52,28.65 23.92,8.93 59.06,24.13 88.28,23.95l21.86 -24.4c11.7,-13.76 52.89,-69.11 56.29,-82.59 -2.3,-1.74 -6.14,-1 -10.53,-1.2 -20.93,-0.97 -40.63,-11.96 -46.81,-33.55 -22.61,1.19 -37.13,-1.93 -51.16,-18.76 -3.43,-4.12 -5.29,-9.92 -8.61,-14.55 -16.1,0.32 -24.77,0.32 -37.25,-7.35 -15.77,-9.69 -16.02,-22.28 -20.44,-23.93 -8.65,3.94 -22.17,19.15 -58.28,33.12 -28.01,10.83 -48.13,12.15 -80.85,9.49 5.44,14.49 23.32,40.07 32.21,50.57z"/>
   <path class="fil1" d="M183.69 172.52l165.33 93.35c9.24,-11.68 18.68,-35.25 17.43,-52.35 -0.76,-10.44 -4.75,-18.37 -9.48,-25.16 -7.76,-11.15 -12.16,-11.32 -17.71,-17.81 4.76,-13.29 13.65,-28.53 19.33,-41.98l39.64 -85.09c16.15,-32.87 -19.4,-50.01 -38.33,-40.57 -7.14,3.56 -9.85,9.97 -14.52,16.73l-74.95 112.05c-16.16,-4.11 -32.89,-13.03 -55.6,1.52 -12.42,7.96 -26.37,26.85 -31.12,39.31z"/>
   <path class="fil2" d="M157.86 196.78c4.42,1.66 4.67,14.24 20.44,23.93 12.48,7.67 21.16,7.67 37.25,7.35 3.32,4.63 5.17,10.43 8.61,14.55 14.03,16.83 28.55,19.95 51.16,18.76 6.19,21.59 25.89,32.58 46.81,33.55 4.39,0.2 8.23,-0.54 10.53,1.2 3.37,-2.47 14.89,-25.34 16.34,-30.24l-165.33 -93.35c-2.34,1.6 -24.27,21.9 -25.82,24.26z"/>
   <path class="fil1" d="M69.98 79.63c-42.29,10.99 -26.89,74.68 15.51,65.3 43.51,-9.63 28.6,-76.77 -15.51,-65.3z"/>
   <path class="fil2" d="M50.93 289.97c2.59,5.72 21.89,26.35 26.4,28.61 1.79,-1.64 4.17,-1.16 8.06,-1.26 18.28,-0.45 40.47,-6.98 56.1,-15.45 16.49,-8.94 33.64,-24 42.46,-38.41 -3.54,4.94 -16.29,13.57 -23.63,17.54 -29.74,16.11 -78.64,19.14 -109.39,8.96z"/>
   <path class="fil2" d="M126.49 357.47c3.32,4.45 32.34,19.51 39.75,21.69 0.78,-0.74 27.46,-11.24 47.52,-28.65 10.6,-9.2 29.12,-26.72 36.19,-40.21 -10.32,6.66 -17.99,20.4 -51.36,33.78 -16.31,6.54 -51.11,16.03 -72.1,13.39z"/>
   <path class="fil1" d="M15.11 1.69c-6.68,2.62 -9,3.54 -12.34,9.89 -9.91,18.86 8.48,39.24 27.46,31.76 27.26,-10.73 11.61,-52.15 -15.13,-41.65z"/>
   <path class="fil1" d="M92.17 22.92c-23.58,5.59 -13.9,38.88 7.91,32.29 20.7,-6.26 11.33,-36.85 -7.91,-32.29z"/>
  </g>
 </g>
</svg>
