<?xml version="1.0" encoding="UTF-8"?>
<!DOCTYPE svg PUBLIC "-//W3C//DTD SVG 1.1//EN" "http://www.w3.org/Graphics/SVG/1.1/DTD/svg11.dtd">
<!-- Creator: CorelDRAW 2019 (64-Bit Evaluation Version) -->
<svg xmlns="http://www.w3.org/2000/svg" xml:space="preserve" width="24.1051mm" height="24.1097mm" version="1.1" style="shape-rendering:geometricPrecision; text-rendering:geometricPrecision; image-rendering:optimizeQuality; fill-rule:evenodd; clip-rule:evenodd"
viewBox="0 0 4773.47 4774.38"
 xmlns:xlink="http://www.w3.org/1999/xlink"
 xmlns:xodm="http://www.corel.com/coreldraw/odm/2003">
 <defs>
  <style type="text/css">
   <![CDATA[
    .fil0 {fill:#3D90CA}
   ]]>
  </style>
 </defs>
 <g id="Layer_x0020_1">
  <metadata id="CorelCorpID_0Corel-Layer"/>
  <path class="fil0" d="M4708.54 4127.77l-929.58 -929.6c-41.96,-41.96 -98.84,-65.27 -158.52,-65.27l-151.97 0c257.34,-329.14 410.25,-743.14 410.25,-1193.49 0,-1071.35 -868.05,-1939.42 -1939.36,-1939.42 -1071.33,0 -1939.36,868.07 -1939.36,1939.42 0,1071.35 868.03,1939.42 1939.36,1939.42 450.33,0 864.31,-152.92 1193.45,-410.27l0 151.99c0,59.67 23.31,116.56 65.25,158.5l929.6 929.62c87.65,87.65 229.36,87.65 316.07,0l263.87 -263.87c87.65,-87.65 87.65,-229.38 0.93,-317.02zm-2769.18 -994.87c-659.19,0 -1193.45,-533.35 -1193.45,-1193.49 0,-659.21 533.31,-1193.49 1193.45,-1193.49 659.19,0 1193.45,533.35 1193.45,1193.49 0,659.21 -533.33,1193.49 -1193.45,1193.49z"/>
 </g>
</svg>
